<?xml version="1.0" encoding="UTF-8"?>
<svg id="Layer_1" data-name="Layer 1" xmlns="http://www.w3.org/2000/svg" width="16.97" height="10.66" viewBox="0 0 16.97 10.66">
  <defs>
    <style>
      .cls-1 {
        fill: #161614;
      }
    </style>
  </defs>
  <path class="cls-1" d="M2.3,6.54c.59-.52,1.09-1.06,1.49-1.62s.6-1.09,.6-1.59c0-.3-.07-.54-.21-.71-.14-.17-.34-.26-.61-.26s-.49,.12-.64,.35c-.15,.23-.22,.57-.21,1.02H0c.03-.85,.21-1.55,.56-2.11S1.35,.66,1.9,.39c.55-.26,1.17-.39,1.84-.39,1.17,0,2.04,.29,2.61,.87,.57,.58,.86,1.33,.86,2.26,0,.99-.33,1.92-.99,2.79s-1.49,1.64-2.48,2.33h3.57v2.27H.03v-2.1c.92-.72,1.68-1.35,2.27-1.87Z"/>
  <path class="cls-1" d="M8.41,8.94v-2.31L12.8,.37h3.07V6.51h1.1v2.43h-1.1v1.71h-2.83v-1.71h-4.63ZM13.26,3.53l-1.97,2.99h1.97V3.53Z"/>
</svg>