<?xml version="1.0" encoding="UTF-8"?>
<svg id="Layer_1" data-name="Layer 1" xmlns="http://www.w3.org/2000/svg" width="13.47" height="10.44" viewBox="0 0 13.47 10.44">
  <defs>
    <style>
      .cls-1 {
        fill: #161614;
      }
    </style>
  </defs>
  <path class="cls-1" d="M0,2.79V.21H4.31V10.44H1.44V2.79H0Z"/>
  <path class="cls-1" d="M8.55,6.41c.58-.51,1.06-1.04,1.46-1.59s.59-1.07,.59-1.56c0-.3-.07-.53-.2-.7s-.33-.25-.59-.25-.48,.11-.63,.34c-.15,.23-.22,.56-.21,1h-2.66c.03-.83,.21-1.52,.55-2.06s.77-.95,1.32-1.2c.54-.26,1.14-.38,1.81-.38,1.15,0,2,.28,2.56,.85s.84,1.31,.84,2.21c0,.97-.32,1.88-.97,2.73-.65,.85-1.46,1.61-2.43,2.28h3.5v2.23H6.33v-2.06c.91-.71,1.65-1.32,2.23-1.83Z"/>
</svg>