<svg width="16" height="11" viewBox="0 0 16 11" fill="none" xmlns="http://www.w3.org/2000/svg">
<path d="M0.719617 3.342V0.766H5.03162V11H2.16162V3.342H0.719617ZM8.02368 8.802C8.92901 8.09267 9.67101 7.48133 10.2497 6.968C10.8283 6.45467 11.3137 5.92733 11.7057 5.386C12.0977 4.83533 12.2937 4.31267 12.2937 3.818C12.2937 3.51933 12.2237 3.286 12.0837 3.118C11.953 2.95 11.757 2.866 11.4957 2.866C11.225 2.866 11.015 2.98267 10.8657 3.216C10.7163 3.44 10.6463 3.77133 10.6557 4.21H7.99568C8.02368 3.37933 8.20568 2.69333 8.54168 2.152C8.87768 1.60133 9.31635 1.2 9.85768 0.947999C10.399 0.686666 11.001 0.555999 11.6637 0.555999C12.8117 0.555999 13.6657 0.840666 14.2257 1.41C14.7857 1.97933 15.0657 2.71667 15.0657 3.622C15.0657 4.59267 14.739 5.50267 14.0857 6.352C13.4417 7.20133 12.6343 7.962 11.6637 8.634H15.1637V10.86H8.02368V8.802Z" fill="black"/>
</svg>
