<svg width="18" height="11" viewBox="0 0 18 11" fill="none" xmlns="http://www.w3.org/2000/svg">
<path d="M0.636805 8.802C1.54214 8.09267 2.28414 7.48133 2.8628 6.968C3.44147 6.45467 3.9268 5.92733 4.3188 5.386C4.7108 4.83533 4.90681 4.31267 4.90681 3.818C4.90681 3.51933 4.83681 3.286 4.6968 3.118C4.56614 2.95 4.37014 2.866 4.1088 2.866C3.83814 2.866 3.62814 2.98267 3.4788 3.216C3.32947 3.44 3.25947 3.77133 3.2688 4.21H0.608805C0.636805 3.37933 0.818805 2.69333 1.1548 2.152C1.4908 1.60133 1.92947 1.2 2.4708 0.947999C3.01214 0.686666 3.61414 0.555999 4.2768 0.555999C5.4248 0.555999 6.2788 0.840666 6.8388 1.41C7.3988 1.97933 7.6788 2.71667 7.6788 3.622C7.6788 4.59267 7.35214 5.50267 6.6988 6.352C6.0548 7.20133 5.24747 7.962 4.2768 8.634H7.77681V10.86H0.636805V8.802ZM8.85951 9.32V7.052L13.1575 0.92H16.1675V6.94H17.2455V9.32H16.1675V11H13.3955V9.32H8.85951ZM13.6055 4.014L11.6735 6.94H13.6055V4.014Z" fill="black"/>
</svg>
